<?xml version="1.0" encoding="utf-8"?>
<svg xmlns="http://www.w3.org/2000/svg" xmlns:xlink="http://www.w3.org/1999/xlink" width="2037" height="1019" viewBox="0 0 2037 1019" style="background-color:transparent;">
  <clipPath id="cl_3">
    <rect width="2037" height="1019" fill="none"/>
  </clipPath>
  <g clip-path="url(#cl_3)">
    <path fill="none" transform="matrix(0.994629 0 0 0.995117 0 -509.5)" d="M0 0L2048 0L2048 2048L0 2048L0 0Z"/>
    <defs>
      <linearGradient id="gradient_0" gradientUnits="userSpaceOnUse" x1="467.73306" y1="1034.703" x2="887.29706" y2="1291.5807">
        <stop offset="0" stop-color="#6E7DD1"/>
        <stop offset="1" stop-color="#EBA1E6"/>
      </linearGradient>
    </defs>
    <path fill="url(#gradient_0)" transform="matrix(0.994629 0 0 0.995117 0 -509.5)" d="M443.002 1072.37C448.362 1066.83 453.677 1061.01 459.515 1055.99C476.636 1041.24 494.069 1035.76 516.495 1037.27C526.007 1053.02 534.262 1069.47 543.584 1085.33C575.338 1139.35 612.439 1177.36 675.048 1192.63C701.252 1199.02 727.528 1199.81 754.304 1198.61C761.366 1196.16 785.811 1194.79 795.747 1192.67C842.481 1182.67 889.764 1159.73 926.793 1129.47C932.202 1142.52 937.606 1155.63 944.112 1168.18C944.331 1168.57 944.534 1168.98 944.77 1169.36C948.813 1175.93 953.303 1177.47 960.575 1179.21C943.308 1195.31 922.634 1209.35 901.969 1220.77C830.414 1260.3 740.021 1272.56 661.089 1249.75C560.062 1220.56 523.451 1165.45 476.335 1079.83C467.683 1088.58 459.579 1098 451.321 1107.13L451.27 1165.1L421.715 1165.06L392.825 1165.08L393.187 1082.02L395.754 1083.21C413.539 1085.45 428.06 1082.57 443.002 1072.37Z"/>
    <path fill="#EE97E0" transform="matrix(0.994629 0 0 0.995117 0 -509.5)" d="M926.793 1129.47C932.202 1142.52 937.606 1155.63 944.112 1168.18C934.169 1176.26 921.285 1182.82 909.896 1188.54C854.862 1216.13 795.651 1225.49 734.616 1219.19C702.738 1215.89 639.031 1197.05 618.005 1172.85C617.121 1171.83 616.358 1170.73 615.625 1169.6C649.274 1193.99 713.722 1206.76 753.979 1200.41C754.791 1200.28 755.601 1200.14 756.406 1199.97L755.942 1199.01L754.304 1198.61C761.366 1196.16 785.811 1194.79 795.747 1192.67C842.481 1182.67 889.764 1159.73 926.793 1129.47Z"/>
    <path fill="#AEB7F0" transform="matrix(0.994629 0 0 0.995117 0 -509.5)" d="M443.002 1072.37C432.374 1092.83 418.063 1118.79 421.01 1142.96C421.829 1150.36 421.379 1157.67 421.715 1165.06L392.825 1165.08L393.187 1082.02L395.754 1083.21C413.539 1085.45 428.06 1082.57 443.002 1072.37Z"/>
    <path fill="#EE97E0" transform="matrix(0.994629 0 0 0.995117 0 -509.5)" d="M1624.04 1059.87C1622.75 1038.63 1634.29 1013.26 1647.87 997.428C1665.47 976.9 1690.46 965.717 1717.24 964.001C1742.18 962.403 1769.2 968.629 1788.24 985.51C1797.01 991.808 1806.24 1003.88 1810.46 1013.83C1821.36 1036.37 1824.54 1058.71 1823.34 1083.57L1679.62 1084.04C1685.21 1099.51 1692.18 1111.08 1707.73 1118.46C1723.35 1125.87 1742.55 1126.02 1758.65 1120.01C1768.83 1116.19 1777.89 1109.86 1784.98 1101.61C1795.45 1112.47 1805.89 1123.52 1816.96 1133.79C1797.63 1156.09 1771.79 1167.2 1742.53 1169.22C1712.57 1171.3 1681.14 1164.68 1658.16 1144.39C1649.44 1136.7 1642.64 1127.7 1637.16 1117.47C1626.81 1099.42 1623.54 1080.44 1624.04 1059.87Z"/>
    <path fill="#DFA9EE" transform="matrix(0.994629 0 0 0.995117 0 -509.5)" d="M1810.46 1013.83C1821.36 1036.37 1824.54 1058.71 1823.34 1083.57L1679.62 1084.04C1685.21 1099.51 1692.18 1111.08 1707.73 1118.46C1723.35 1125.87 1742.55 1126.02 1758.65 1120.01C1768.83 1116.19 1777.89 1109.86 1784.98 1101.61C1795.45 1112.47 1805.89 1123.52 1816.96 1133.79C1797.63 1156.09 1771.79 1167.2 1742.53 1169.22C1712.57 1171.3 1681.14 1164.68 1658.16 1144.39C1649.44 1136.7 1642.64 1127.7 1637.16 1117.47C1641.07 1110.13 1643.44 1103.32 1648.71 1096.58C1689.71 1044.17 1754.96 1086.29 1793.85 1051.32C1804.93 1041.36 1809.61 1028.32 1810.46 1013.83Z"/>
    <path fill="#E48DCD" transform="matrix(0.994629 0 0 0.995117 0 -509.5)" d="M1624.04 1059.87C1622.75 1038.63 1634.29 1013.26 1647.87 997.428C1665.47 976.9 1690.46 965.717 1717.24 964.001C1742.18 962.403 1769.2 968.629 1788.24 985.51C1753.49 974.707 1720.49 972.811 1687.28 990.43C1661.15 1004.29 1643.29 1028.4 1634.88 1056.48C1631.41 1068.07 1630.39 1079.16 1630.43 1091.18C1625.29 1081.58 1626.7 1070.18 1624.04 1059.87Z"/>
    <path fill="none" transform="matrix(0.994629 0 0 0.995117 0 -509.5)" d="M1720.21 1007.28C1729.21 1006.65 1738.28 1008.12 1746.17 1012.67C1760.94 1021.18 1765.95 1035.77 1769.91 1051.27C1755.54 1051.52 1741.13 1051.31 1726.75 1051.32L1677.9 1051.49C1680.15 1042.09 1682.62 1033.28 1688.44 1025.33C1696.32 1014.55 1707.36 1009.42 1720.21 1007.28Z"/>
    <path fill="#F3D1A8" transform="matrix(0.994629 0 0 0.995117 0 -509.5)" d="M1230.71 838.554C1258.27 828.497 1303.98 826.435 1333.23 829.355C1346.27 830.655 1358.95 833.341 1371.64 836.472L1373.47 837.371C1379.73 840.387 1386.81 841.759 1393.24 844.507C1413.37 853.123 1434.25 867.116 1449.79 882.539C1449.92 886.442 1450.77 888.572 1452.62 891.988C1405.5 857.335 1357.02 839.336 1297.76 848.171C1232.55 857.894 1181.23 894.857 1137.96 942.53C1117.53 966.719 1099.69 992.99 1084.75 1020.91C1078.28 1032.76 1073.16 1047.03 1065.62 1058.01C1050.87 1094 1034.58 1129.53 1019.54 1165.44C1003.68 1165.69 987.823 1165.68 971.966 1165.44C983.008 1089.77 1012.73 1018.05 1058.44 956.745C1099.35 903.352 1164.02 851.831 1230.71 838.554Z"/>
    <path fill="#EEAE8F" transform="matrix(0.994629 0 0 0.995117 0 -509.5)" d="M1058.44 956.745C1059.61 956.524 1061.95 956.413 1062.93 955.897C1068.01 953.228 1100.76 915.849 1109.82 908.192C1129.4 891.648 1150.56 876.101 1173.51 864.602C1178.75 861.976 1186.9 857.012 1192.71 856.292C1192.01 858.026 1191.43 859.512 1189.69 860.457C1174.9 868.507 1162.46 878.528 1149.89 889.643C1101.7 932.237 1070.25 987.064 1042.45 1044.44C1037.39 1054.89 1033.35 1065.76 1028.41 1076.24C1014.36 1106.05 998.253 1135.01 978.316 1161.28C989.376 1160.77 1005.45 1162.15 1015.75 1159.71C1020.26 1153.97 1022.68 1145.79 1025.51 1139.07C1032.12 1123.41 1052.63 1070.22 1060.8 1060.52C1062.08 1059 1063.78 1058.51 1065.62 1058.01C1050.87 1094 1034.58 1129.53 1019.54 1165.44C1003.68 1165.69 987.823 1165.68 971.966 1165.44C983.008 1089.77 1012.73 1018.05 1058.44 956.745Z"/>
    <path fill="#F8DD91" transform="matrix(0.994629 0 0 0.995117 0 -509.5)" d="M1230.71 838.554C1258.27 828.497 1303.98 826.435 1333.23 829.355C1346.27 830.655 1358.95 833.341 1371.64 836.472L1373.47 837.371C1379.73 840.387 1386.81 841.759 1393.24 844.507C1413.37 853.123 1434.25 867.116 1449.79 882.539C1449.92 886.442 1450.77 888.572 1452.62 891.988C1405.5 857.335 1357.02 839.336 1297.76 848.171C1232.55 857.894 1181.23 894.857 1137.96 942.53C1136.22 942.374 1134.92 942.108 1133.29 941.465C1138.01 932.368 1169.82 903.952 1178.54 897.125C1184.3 892.612 1191.92 888.559 1197.02 883.482C1197.61 882.893 1197.75 882.378 1198.04 881.669L1196.44 880.573C1191.61 880.594 1189.72 882.609 1185.8 884.905C1178.44 889.215 1173 885.535 1165.72 884.108C1159.47 882.886 1139.69 905.89 1133.53 910.325C1131.3 911.921 1129.7 912.857 1128.6 915.471C1128.54 915.605 1127.99 917.255 1127.83 917.431C1123.05 922.501 1117.78 927.385 1112.91 932.461C1141.61 891.486 1185.68 861.878 1230.18 840.431L1230.71 838.554Z"/>
    <path fill="#FDA8C5" transform="matrix(0.994629 0 0 0.995117 0 -509.5)" d="M1449.84 1038.52C1446.51 1024.94 1450.5 1007.53 1457.62 995.841C1467.43 979.723 1483.64 970.569 1501.63 966.333C1529.97 959.66 1576.19 964.036 1601.21 979.396L1603.26 980.697C1602.92 991.68 1593.48 1009.44 1590.02 1020.6C1568.33 1010.02 1538.49 1001.84 1514.55 1009.29C1509.64 1010.82 1505.11 1014.37 1502.92 1019.08C1501.42 1022.28 1501.14 1025.41 1502.62 1028.68C1505.64 1035.38 1515.77 1039.04 1522.28 1040.79C1550.41 1048.32 1589.23 1048.54 1605.85 1076.9C1608.41 1081.27 1610.76 1086.7 1611.64 1091.72C1614.75 1106.97 1612.83 1123.22 1604.24 1136.49C1593.22 1153.52 1573.38 1162.35 1554.08 1166.05C1520.79 1172.43 1479.97 1167.69 1450.07 1151.35C1447.73 1150.55 1445.46 1148.79 1443.35 1147.49C1449.58 1134.44 1454.67 1120.69 1460.12 1107.28C1480.09 1121.91 1510.34 1127.43 1534.62 1125.89C1541.73 1125.44 1550.74 1124.35 1555.51 1118.41C1558.15 1115.13 1559.18 1110.33 1558.43 1106.21C1555.31 1089.23 1513.73 1086.87 1500.22 1083.57C1489.63 1080.98 1478.7 1077.48 1469.74 1071.06C1458.71 1063.15 1452.31 1053.03 1450.03 1039.67L1449.84 1038.52Z"/>
    <path fill="#F8ACD3" transform="matrix(0.994629 0 0 0.995117 0 -509.5)" d="M1450.07 1151.35C1454.56 1150.81 1478.64 1158.86 1488.16 1159.48C1524.43 1161.81 1566.25 1155.28 1594.16 1130.11C1600.47 1124.41 1609.12 1114.71 1610.92 1106.18C1611.86 1101.74 1611.42 1096.29 1611.64 1091.72C1614.75 1106.97 1612.83 1123.22 1604.24 1136.49C1593.22 1153.52 1573.38 1162.35 1554.08 1166.05C1520.79 1172.43 1479.97 1167.69 1450.07 1151.35Z"/>
    <path fill="#EB9FB4" transform="matrix(0.994629 0 0 0.995117 0 -509.5)" d="M1449.84 1038.52C1446.51 1024.94 1450.5 1007.53 1457.62 995.841C1467.43 979.723 1483.64 970.569 1501.63 966.333C1529.97 959.66 1576.19 964.036 1601.21 979.396C1600.62 979.454 1600.03 979.524 1599.44 979.568C1590.26 980.239 1578.63 974.797 1569.25 973.527C1536.2 969.055 1491.56 974.587 1467.67 1000.28C1460.37 1008.15 1455.53 1017.05 1452.02 1027.13L1450.75 1030.71L1450.46 1024.6L1449.84 1038.52Z"/>
    <defs>
      <linearGradient id="gradient_1" gradientUnits="userSpaceOnUse" x1="1195.0026" y1="1091.813" x2="1183.6986" y2="981.07227">
        <stop offset="0" stop-color="#FCE3C8"/>
        <stop offset="1" stop-color="#FDE6A4"/>
      </linearGradient>
    </defs>
    <path fill="url(#gradient_1)" transform="matrix(0.994629 0 0 0.995117 0 -509.5)" d="M1099.19 1098.49C1095.11 1087.99 1093.85 1075.22 1093.96 1064.02C1094.02 1036.14 1105.25 1009.44 1125.14 989.895C1143.99 971.651 1169.94 963.17 1195.92 963.786C1220.23 964.361 1245.41 972.024 1262.61 989.88C1273.19 999.134 1283.6 1015.59 1286.9 1029.29C1292.75 1047.73 1293.94 1064.35 1292.61 1083.59C1260.52 1083.94 1228.43 1084.04 1196.34 1083.86C1180.87 1083.86 1164.29 1082.7 1148.94 1084.38C1148.75 1084.68 1148.53 1084.96 1148.37 1085.27C1147.54 1086.9 1147.75 1088.14 1147.86 1089.9L1146.92 1089.94C1145.56 1086.47 1145.92 1083.92 1146.54 1080.33L1145.41 1079.04C1139.29 1079.03 1125.13 1086.91 1120.75 1091.17C1115.52 1096.26 1110.4 1102.05 1106.42 1108.18L1102.7 1109.74C1101.47 1106.01 1100.3 1102.26 1099.19 1098.49Z"/>
    <path fill="#F8DD91" transform="matrix(0.994629 0 0 0.995117 0 -509.5)" d="M1099.19 1098.49C1095.11 1087.99 1093.85 1075.22 1093.96 1064.02C1094.02 1036.14 1105.25 1009.44 1125.14 989.895C1143.99 971.651 1169.94 963.17 1195.92 963.786C1220.23 964.361 1245.41 972.024 1262.61 989.88C1232.71 976.107 1202.41 973.217 1171.04 984.905C1143.38 995.414 1121.06 1016.52 1109.02 1043.54C1100.88 1061.42 1098.45 1079.04 1099.19 1098.49Z"/>
    <path fill="#EEAE8F" transform="matrix(0.994629 0 0 0.995117 0 -509.5)" d="M1102.7 1109.74C1121.32 1079.73 1154.79 1068.76 1188.82 1069.51C1209.99 1069.97 1233.75 1074.07 1253.97 1066.09C1272.57 1058.75 1279.17 1046.35 1286.9 1029.29C1292.75 1047.73 1293.94 1064.35 1292.61 1083.59C1260.52 1083.94 1228.43 1084.04 1196.34 1083.86C1180.87 1083.86 1164.29 1082.7 1148.94 1084.38C1148.75 1084.68 1148.53 1084.96 1148.37 1085.27C1147.54 1086.9 1147.75 1088.14 1147.86 1089.9L1146.92 1089.94C1145.56 1086.47 1145.92 1083.92 1146.54 1080.33L1145.41 1079.04C1139.29 1079.03 1125.13 1086.91 1120.75 1091.17C1115.52 1096.26 1110.4 1102.05 1106.42 1108.18L1102.7 1109.74Z"/>
    <path fill="none" transform="matrix(0.994629 0 0 0.995117 0 -509.5)" d="M1186.77 1007.29C1197.57 1006.28 1208.5 1007.83 1217.76 1013.8C1230.92 1022.28 1235.45 1035.71 1238.91 1050.11C1225.91 1050.6 1212.76 1050.22 1199.75 1050.23C1182.6 1049.8 1165.36 1050.16 1148.2 1050.15C1149.87 1041.85 1151.94 1034.21 1156.55 1026.95C1163.65 1015.76 1174.15 1010.07 1186.77 1007.29Z"/>
    <path fill="#6EF59B" transform="matrix(0.994629 0 0 0.995117 0 -509.5)" d="M709.611 878.857L744.533 878.797L744.746 1024.02C744.784 1045.12 746.67 1074.98 744.659 1094.8C744.971 1101.51 744.862 1109.7 750.122 1114.69C755.081 1119.39 761.808 1119.19 768.164 1119.03C768.104 1133.03 768.694 1147.36 767.844 1161.32C768.196 1163.62 768.092 1163.3 767.203 1165.19C761.908 1167.83 754.802 1167.87 748.911 1168.09C732.727 1168.69 715.979 1163.93 704.181 1152.44C693.615 1142.15 688.139 1128.01 687.827 1113.41C685.14 1091.6 687.456 1065.81 687.41 1043.52C687.192 988.672 687.314 933.823 687.777 878.976L709.611 878.857Z"/>
    <path fill="#A2F8A8" transform="matrix(0.994629 0 0 0.995117 0 -509.5)" d="M709.611 878.857L744.533 878.797L744.746 1024.02C744.784 1045.12 746.67 1074.98 744.659 1094.8C744.971 1101.51 744.862 1109.7 750.122 1114.69C755.081 1119.39 761.808 1119.19 768.164 1119.03C768.104 1133.03 768.694 1147.36 767.844 1161.32C765.654 1155.65 767.364 1149.99 766.465 1144.26C766.029 1141.49 764.8 1138.98 764.337 1136.2L764.095 1134.69C764.139 1140.58 764.305 1146.48 763.759 1152.35L762.319 1152.74C759.608 1150.44 756.918 1148.12 754.249 1145.77C725.44 1120.37 719.715 1083.11 715.229 1046.99C713.841 1035.81 711.548 1024.02 711.272 1012.77C711.035 1003.11 713.928 992.277 713.252 983.059C713.23 982.764 713.202 982.469 713.177 982.174L713.403 980.437L714.314 980.537C716.673 993.874 715.384 1008.73 716.563 1022.4C718.11 1006.68 716.433 991.076 717.711 975.49C714.931 967.699 716.993 949.827 716.958 940.875C716.878 920.725 716.042 898.116 709.611 878.857Z"/>
    <path fill="#CDE5A4" transform="matrix(0.994629 0 0 0.995117 0 -509.5)" d="M709.611 878.857L744.533 878.797L744.746 1024.02C744.784 1045.12 746.67 1074.98 744.659 1094.8C742.102 1087.39 743.977 1020.74 743.509 1007.09C743.237 999.196 739.972 992.984 740.509 984.991C732.01 982.739 725.126 980.458 717.711 975.49C714.931 967.699 716.993 949.827 716.958 940.875C716.878 920.725 716.042 898.116 709.611 878.857Z"/>
    <path fill="#B2ECA1" transform="matrix(0.994629 0 0 0.995117 0 -509.5)" d="M687.777 878.976L709.611 878.857C716.042 898.116 716.878 920.725 716.958 940.875C716.993 949.827 714.931 967.699 717.711 975.49C716.433 991.076 718.11 1006.68 716.563 1022.4C715.384 1008.73 716.673 993.874 714.314 980.537L713.403 980.437L713.177 982.174C706.287 981.387 701.318 978.713 695.424 975.278C694.352 971.599 693.226 968.037 691.819 964.471C691.395 984.989 688.883 1005.33 688.505 1025.75C687.965 1054.88 689.433 1084.34 687.827 1113.41C685.14 1091.6 687.456 1065.81 687.41 1043.52C687.192 988.672 687.314 933.823 687.777 878.976Z"/>
    <path fill="#6EF59B" transform="matrix(0.994629 0 0 0.995117 0 -509.5)" d="M780.963 878.625L822.305 878.38C824.879 887.218 830.186 895.065 832.571 903.838C835.482 909.138 837.733 913.384 838.635 919.459C841.308 937.444 839.362 957.937 839.307 976.225C839.231 1001.47 840.3 1027.31 838.891 1052.49C839.104 1066.95 835.332 1106.08 845.182 1116.02C850.239 1121.11 861.164 1118.1 861.803 1121.9C861.834 1122.08 861.786 1122.27 861.778 1122.45C862.843 1136.57 862.052 1151.26 862.071 1165.43C854.516 1167.04 846.916 1168.09 839.179 1168.01C823.403 1167.85 807.827 1162.92 796.727 1151.23C780.387 1134.03 780.805 1112.47 780.871 1090.39L781.108 1055.17C779.822 1035.18 780.775 1014.56 780.788 994.496L780.963 878.625Z"/>
    <path fill="#A2F8A8" transform="matrix(0.994629 0 0 0.995117 0 -509.5)" d="M805.892 1006.44L807.304 1006.11C808.597 1054.01 801.699 1112.56 840.061 1149.08C846.453 1155.16 853.758 1159.88 861.158 1164.63C861.01 1151.46 859.119 1135.33 861.778 1122.45C862.843 1136.57 862.052 1151.26 862.071 1165.43C854.516 1167.04 846.916 1168.09 839.179 1168.01C823.403 1167.85 807.827 1162.92 796.727 1151.23C780.387 1134.03 780.805 1112.47 780.871 1090.39L781.108 1055.17C782.585 1042.73 784.135 1023.91 784.451 1011.43C789.265 1011.68 798.438 1011.75 802.289 1014.86C805.888 1017.77 805.299 1023.55 805.421 1027.75L805.892 1006.44Z"/>
    <path fill="#CDE5A4" transform="matrix(0.994629 0 0 0.995117 0 -509.5)" d="M780.963 878.625L822.305 878.38C824.879 887.218 830.186 895.065 832.571 903.838C829.586 902.468 828.573 900.967 827.375 897.913C826.777 896.389 826.25 894.832 825.717 893.283C813.769 922.569 809.506 952.341 807.021 983.649C806.432 991.066 805.144 999.041 805.892 1006.44L805.421 1027.75C805.299 1023.55 805.888 1017.77 802.289 1014.86C798.438 1011.75 789.265 1011.68 784.451 1011.43C784.135 1023.91 782.585 1042.73 781.108 1055.17C779.822 1035.18 780.775 1014.56 780.788 994.496L780.963 878.625Z"/>
    <path fill="#B2ECA1" transform="matrix(0.994629 0 0 0.995117 0 -509.5)" d="M825.717 893.283C826.25 894.832 826.777 896.389 827.375 897.913C828.573 900.967 829.586 902.468 832.571 903.838C835.482 909.138 837.733 913.384 838.635 919.459C841.308 937.444 839.362 957.937 839.307 976.225C839.231 1001.47 840.3 1027.31 838.891 1052.49C837.706 1041.18 837.919 984.644 834.375 979.912C833.221 980.885 832.491 981.364 831.092 982.047C827.123 979.099 822.395 978.157 817.742 976.671C816.786 974.944 816.447 974.503 814.821 973.22L812.842 973.76C807.732 980.072 807.974 997.655 807.304 1006.11L805.892 1006.44C805.144 999.041 806.432 991.066 807.021 983.649C809.506 952.341 813.769 922.569 825.717 893.283Z"/>
    <path fill="#79B9D8" transform="matrix(0.994629 0 0 0.995117 0 -509.5)" d="M392.948 878.229L451.5 878.089C451.481 922.641 452.972 967.816 451.259 1012.29C452.103 1021.02 451.655 1029.97 451.594 1038.73C454.78 1033.97 457.815 1029.03 461.843 1024.92C466.745 1013.9 503.148 976.441 513.545 965.898L578.227 966.087C575.983 968.955 573.386 971.569 570.9 974.23C562.865 983.623 547.912 1003.78 538.888 1010.26C531.406 1019.2 523.639 1028.05 516.495 1037.27C494.069 1035.76 476.636 1041.24 459.515 1055.99C453.677 1061.01 448.362 1066.83 443.002 1072.37C428.06 1082.57 413.539 1085.45 395.754 1083.21L393.187 1082.02L393.325 1069.53C392.971 1021.9 392.919 974.273 393.17 926.645C392.894 910.508 392.82 894.368 392.948 878.229Z"/>
    <defs>
      <linearGradient id="gradient_2" gradientUnits="userSpaceOnUse" x1="432.64426" y1="1043.92" x2="436.50714" y2="881.77386">
        <stop offset="0" stop-color="#6896C0"/>
        <stop offset="1" stop-color="#90D7EB"/>
      </linearGradient>
    </defs>
    <path fill="url(#gradient_2)" transform="matrix(0.994629 0 0 0.995117 0 -509.5)" d="M392.948 878.229L451.5 878.089C451.481 922.641 452.972 967.816 451.259 1012.29C449.749 1021.53 452.619 1031.42 449.818 1040.6C448.973 1043.37 447.362 1046.27 444.569 1047.45C441.481 1048.74 437.778 1047.52 434.919 1046.15C411.098 1034.76 419.064 962.601 420.308 939.976C420.609 934.503 418.924 929.096 419.346 923.627C420.115 913.675 427.053 890.985 424.129 882.479C415.169 881.603 406.005 881.982 397.006 882.006C396.931 891.875 399.838 926.869 395.835 933.89C393.625 932.237 393.734 929.298 393.17 926.645C392.894 910.508 392.82 894.368 392.948 878.229Z"/>
    <path fill="#75AFE7" transform="matrix(0.994629 0 0 0.995117 0 -509.5)" d="M393.325 1069.53C394.948 1061.19 394.095 1051.16 394.124 1042.61C394.078 1025.72 394.182 1008.83 394.436 991.947C395.898 995.709 395.058 1004.59 395.281 1008.92C395.776 1018.49 397.049 1028.01 397.652 1037.57C398.263 1047.25 397.818 1056.87 399.529 1066.46C404.633 1065.85 410.367 1070.4 415.585 1071.41C419.367 1072.14 421.223 1069.84 425.142 1070.13C426.358 1071.05 427.72 1072.25 429.082 1072.9C433.213 1074.9 437.249 1071.24 440.35 1068.64C454.711 1056.63 464.309 1044.02 482.537 1037.33C487.952 1035.34 493.655 1034.58 499.074 1032.71C501.445 1031.9 503.057 1031.06 505.595 1031.63C507.394 1032.04 511.27 1032.98 512.995 1032.41C522.27 1029.31 527.767 1013.12 538.888 1010.26C531.406 1019.2 523.639 1028.05 516.495 1037.27C494.069 1035.76 476.636 1041.24 459.515 1055.99C453.677 1061.01 448.362 1066.83 443.002 1072.37C428.06 1082.57 413.539 1085.45 395.754 1083.21L393.187 1082.02L393.325 1069.53Z"/>
    <path fill="#84C7DD" transform="matrix(0.994629 0 0 0.995117 0 -509.5)" d="M513.545 965.898L578.227 966.087C575.983 968.955 573.386 971.569 570.9 974.23C557.272 968.965 530.925 977.34 518.263 982.981C507.448 987.801 497.611 994.199 488.392 1001.6C484.592 1004.65 465.169 1024.75 464.017 1025.22C463.338 1025.49 462.567 1025.02 461.843 1024.92C466.745 1013.9 503.148 976.441 513.545 965.898Z"/>
    <path fill="#DFA9EE" transform="matrix(0.994629 0 0 0.995117 0 -509.5)" d="M837.017 878.074C846.079 878.17 855.14 878.4 864.196 878.763C879.781 880.167 895.049 885.022 905.332 897.671C919 914.483 973.712 1055.26 981.838 1081.73C976.432 1106.2 968.861 1138.6 968.738 1163.36L967.834 1164.63C965.477 1165.77 964.404 1166.19 961.788 1165.81C958.778 1164.09 957.238 1161.69 955.696 1158.61C950.944 1149.12 947.115 1138.69 942.876 1128.93C932.477 1105.27 922.432 1081.46 912.746 1057.5C888.137 997.494 863.646 937.213 837.017 878.074Z"/>
    <path fill="#EE97E0" transform="matrix(0.994629 0 0 0.995117 0 -509.5)" d="M864.196 878.763C879.781 880.167 895.049 885.022 905.332 897.671C919 914.483 973.712 1055.26 981.838 1081.73C976.432 1106.2 968.861 1138.6 968.738 1163.36C968.322 1160.93 966.354 1158.33 966.113 1156.31C964.707 1144.5 972.781 1124.59 971.385 1111.34C970.331 1101.33 957.717 1092.65 957.015 1083.07L959.54 1084.2C959.411 1080.25 930.341 1015.18 925.785 1004.38C912.577 973.059 904.552 940.187 888.666 909.935C886.146 905.135 883.513 900.191 879.97 896.05C875.795 891.171 867.551 885.723 864.83 880.155C864.606 879.697 864.407 879.227 864.196 878.763Z"/>
    <path fill="#EEAE8F" transform="matrix(0.994629 0 0 0.995117 0 -509.5)" d="M1372.06 994.961C1383.69 981.684 1394.58 972.356 1412 967.708C1418.45 965.987 1432.11 963.538 1438.02 967.008L1437.43 968.718L1437.27 1019.18C1422.66 1016.7 1408.44 1017.02 1395.84 1025.93C1383.96 1034.33 1378.05 1047.85 1375.9 1061.82C1373.86 1075.08 1374.72 1089.1 1374.78 1102.49L1375.13 1165.12L1315.85 1165.3C1315.89 1160.45 1315.61 1155.3 1315.99 1150.49C1314.92 1133.47 1315.59 1116.12 1315.59 1099.06L1315.68 1004.23L1315.75 966.982L1371.95 966.839L1372.06 994.961Z"/>
    <path fill="#F58C8F" transform="matrix(0.994629 0 0 0.995117 0 -509.5)" d="M1367.39 1013.68L1368.34 1012.45C1385.83 990.105 1408.43 972.279 1437.43 968.718L1437.27 1019.18C1422.66 1016.7 1408.44 1017.02 1395.84 1025.93C1383.96 1034.33 1378.05 1047.85 1375.9 1061.82C1373.86 1075.08 1374.72 1089.1 1374.78 1102.49L1375.13 1165.12L1315.85 1165.3C1315.89 1160.45 1315.61 1155.3 1315.99 1150.49C1317.1 1147.03 1316.72 1143.47 1317.81 1139.94L1319.15 1140.63C1321.95 1146.29 1319.98 1154.32 1320.43 1160.62C1330.33 1160.39 1340.09 1160.55 1349.98 1160.69C1350.86 1150.71 1346.6 1138.2 1345.5 1128.05C1341.02 1086.65 1345.71 1049.65 1367.39 1013.68Z"/>
    <path fill="#FCAF8B" transform="matrix(0.994629 0 0 0.995117 0 -509.5)" d="M1372.06 994.961C1383.69 981.684 1394.58 972.356 1412 967.708C1418.45 965.987 1432.11 963.538 1438.02 967.008L1437.43 968.718C1408.43 972.279 1385.83 990.105 1368.34 1012.45L1367.39 1013.68C1364.29 1005.18 1381.47 999.87 1382.38 992.972L1379.98 992.665C1377.79 994.719 1376.13 996.368 1373.23 997.384C1364.83 993.939 1369.7 977.42 1365.77 971.325C1360.41 969.795 1352.59 971.435 1346.88 971.581C1340.92 971.733 1335.04 970.451 1329.07 970.471C1327.23 970.478 1325.13 970.627 1323.48 971.522C1321.77 972.446 1320.62 973.869 1320.06 975.71C1318.24 981.747 1318.96 997.12 1317.35 1005.46L1315.68 1004.23L1315.75 966.982L1371.95 966.839L1372.06 994.961Z"/>
    <defs>
      <linearGradient id="gradient_3" gradientUnits="userSpaceOnUse" x1="285.50256" y1="1074.5792" x2="287.01852" y2="976.42883">
        <stop offset="0" stop-color="#88BDE0"/>
        <stop offset="1" stop-color="#9CD6EE"/>
      </linearGradient>
    </defs>
    <path fill="url(#gradient_3)" transform="matrix(0.994629 0 0 0.995117 0 -509.5)" d="M213.647 1044.49C211.742 1035.77 211.115 1026.76 212.278 1017.88C214.315 1002.34 222.141 988.592 234.8 979.189C257.438 962.375 290.479 961.303 317.247 965.516C327.339 967.105 358.427 973.545 364.232 981.567L363.578 984.898C358.809 996.5 355.371 1008.64 350.478 1020.16C329.472 1010.56 296.745 1001.22 273.991 1009.83C270.004 1011.33 265.913 1014.04 264.14 1018.06C262.831 1021.03 262.512 1024.4 263.759 1027.44C266.12 1033.21 272.835 1036.32 278.325 1038.27C309.653 1049.39 349.004 1045.62 367.432 1079.2C327.294 1065.24 291.559 1058.89 251.193 1078.2C250.39 1078.58 249.621 1079.03 248.844 1079.47C247.036 1078.82 245.288 1078.07 243.535 1077.29C227.778 1070.28 219.77 1060.33 213.647 1044.49Z"/>
    <path fill="#84C7DD" transform="matrix(0.994629 0 0 0.995117 0 -509.5)" d="M213.647 1044.49C211.742 1035.77 211.115 1026.76 212.278 1017.88C214.315 1002.34 222.141 988.592 234.8 979.189C257.438 962.375 290.479 961.303 317.247 965.516C327.339 967.105 358.427 973.545 364.232 981.567L363.578 984.898C335.414 971.549 287.715 972.615 258.769 983.073C241.402 989.348 227.041 1001.04 219.264 1018.01C215.43 1026.38 213.626 1035.3 213.647 1044.49Z"/>
    <defs>
      <linearGradient id="gradient_4" gradientUnits="userSpaceOnUse" x1="585.2301" y1="1113.7734" x2="656.74561" y2="1044.0498">
        <stop offset="0" stop-color="#98E5C3"/>
        <stop offset="1" stop-color="#B3FAC9"/>
      </linearGradient>
    </defs>
    <path fill="url(#gradient_4)" transform="matrix(0.994629 0 0 0.995117 0 -509.5)" d="M598.997 964.188C615.394 964.145 638.945 962.16 654.683 964.869C654.827 985.415 656.967 1156.97 654.165 1164.3L652.899 1165.14C631.097 1163.95 614.326 1148.13 599.052 1133.87C598.807 1104.77 598.826 1075.67 599.108 1046.57C597.703 1019.36 599.024 991.476 598.997 964.188Z"/>
    <path fill="#8AE9B1" transform="matrix(0.994629 0 0 0.995117 0 -509.5)" d="M654.683 964.869C654.827 985.415 656.967 1156.97 654.165 1164.3L652.899 1165.14C649.997 1156.3 641.135 1147.55 636.677 1138.84C615.864 1098.2 618.631 1033.25 632.35 990.637C636.609 984.268 638.202 975.976 642.992 969.881C646.528 965.382 649.276 965.452 654.683 964.869Z"/>
    <path fill="#A2F8A8" transform="matrix(0.994629 0 0 0.995117 0 -509.5)" d="M598.997 964.188C615.394 964.145 638.945 962.16 654.683 964.869C649.276 965.452 646.528 965.382 642.992 969.881C638.202 975.976 636.609 984.268 632.35 990.637C626.757 994.996 624.617 1006.53 623.715 1013.48L623.582 1014.59C623.499 1013.29 623.668 1011.12 623.285 1009.95C622.748 1008.31 607.399 992.79 604.964 991.314C604.461 991.009 603.861 990.907 603.31 990.704C596.355 1002.39 603.123 1032.08 599.108 1046.57C597.703 1019.36 599.024 991.476 598.997 964.188Z"/>
    <defs>
      <linearGradient id="gradient_5" gradientUnits="userSpaceOnUse" x1="1365.6223" y1="784.96729" x2="1241.9967" y2="893.67883">
        <stop offset="0" stop-color="#F2F5A6"/>
        <stop offset="1" stop-color="#C7E9B6"/>
      </linearGradient>
    </defs>
    <path fill="url(#gradient_5)" transform="matrix(0.994629 0 0 0.995117 0 -509.5)" d="M1164.59 804.739C1230.39 780.28 1300.99 780.685 1365.15 810.27C1403.78 828.081 1443.63 858.548 1466.86 894.848C1460.21 892.687 1456.41 885.167 1449.79 882.539C1434.25 867.116 1413.37 853.123 1393.24 844.507C1386.81 841.759 1379.73 840.387 1373.47 837.371L1371.64 836.472C1367.9 830.897 1340.44 824.87 1333.18 823.458C1276.84 812.493 1226.81 821.791 1173.89 841.545C1145 855.262 1119.83 871.455 1095.13 891.71C1099.82 881.933 1120.29 835.851 1118.8 828.281C1125.17 820.848 1153.9 809.191 1164.59 804.739Z"/>
    <path fill="#B2ECA1" transform="matrix(0.994629 0 0 0.995117 0 -509.5)" d="M1164.59 804.739C1164.97 804.805 1165.34 804.875 1165.71 804.936C1170.7 805.76 1173.8 805.349 1178.55 803.875C1179.1 803.702 1182.97 802.284 1183.22 802.359C1183.76 802.524 1183.94 803.231 1184.3 803.666C1184.25 810.792 1182.05 825.608 1186.66 831.203C1186.89 831.481 1187.2 831.688 1187.46 831.93C1182.83 837.069 1175.55 833.049 1173.89 841.545C1145 855.262 1119.83 871.455 1095.13 891.71C1099.82 881.933 1120.29 835.851 1118.8 828.281C1125.17 820.848 1153.9 809.191 1164.59 804.739Z"/>
    <path fill="#AEB7F0" transform="matrix(0.994629 0 0 0.995117 0 -509.5)" d="M248.844 1079.47C249.621 1079.03 250.39 1078.58 251.193 1078.2C291.559 1058.89 327.294 1065.24 367.432 1079.2C374.609 1094.91 375.996 1112.03 369.688 1128.37C363.939 1143.27 352.192 1153.44 337.806 1159.58C304.211 1173.92 257.844 1170.36 224.569 1156.82C218.092 1154.19 212.076 1150.77 206.031 1147.28C212.178 1134.04 217.692 1120.55 223.239 1107.05C243.622 1121.19 275.333 1129.25 299.968 1124.78C306.788 1123.54 316.801 1120.47 320.727 1114.16C322.029 1112.07 322.253 1109.38 321.39 1107.09C318.897 1100.45 313.391 1096.54 307.382 1093.45C300.383 1091.55 293.358 1090.04 286.251 1088.6C273.654 1086.09 261.087 1083.38 248.844 1079.47Z"/>
    <path fill="#FCAF8B" transform="matrix(0.994629 0 0 0.995117 0 -509.5)" d="M1102.7 1109.74L1106.42 1108.18C1110.4 1102.05 1115.52 1096.26 1120.75 1091.17C1125.13 1086.91 1139.29 1079.03 1145.41 1079.04L1146.54 1080.33C1145.92 1083.92 1145.56 1086.47 1146.92 1089.94L1147.86 1089.9C1147.75 1088.14 1147.54 1086.9 1148.37 1085.27C1148.53 1084.96 1148.75 1084.68 1148.94 1084.38C1155.24 1099.99 1162.64 1112 1178.76 1119.14C1194.68 1126.2 1213.61 1125.71 1229.66 1119.3C1239.6 1115.33 1247.28 1109.27 1254.83 1101.8C1265.57 1113.04 1276.2 1124.43 1287.14 1135.48C1263.94 1159.39 1236.74 1169.68 1203.45 1170.2C1174.02 1170.66 1145.16 1161.89 1123.75 1141.08C1114.46 1132.05 1107.91 1121.54 1102.7 1109.74Z"/>
    <path fill="#B2ECA1" transform="matrix(0.994629 0 0 0.995117 0 -509.5)" d="M1357.42 786.032C1415.73 792.521 1455.87 820.57 1492.28 864.958C1512.18 838.842 1538.52 812.33 1569.31 799.487C1577.94 795.069 1587.28 792.612 1596.62 790.167C1595.9 795.577 1597.21 803.346 1601.01 807.549C1603.4 810.192 1604.38 809.868 1607.66 810.166C1599.09 813.671 1590.57 819.461 1582.02 822.413C1546.39 844.617 1516.32 870.327 1493.25 905.789C1458.42 847.476 1419.71 813.203 1357.42 786.032Z"/>
    <path fill="#6EF59B" transform="matrix(0.994629 0 0 0.995117 0 -509.5)" d="M1569.31 799.487C1577.94 795.069 1587.28 792.612 1596.62 790.167C1595.9 795.577 1597.21 803.346 1601.01 807.549C1603.4 810.192 1604.38 809.868 1607.66 810.166C1599.09 813.671 1590.57 819.461 1582.02 822.413C1578.74 823.133 1575.5 824.354 1572.21 825.162L1571.46 824.478C1578.67 820.499 1590.48 816.467 1594.08 808.83C1594.07 805.597 1593.82 805.13 1592.12 802.354C1592.36 800.801 1592.51 799.324 1592.63 797.761C1585.02 791.464 1571.22 806.08 1562.84 806.36C1564.73 804.651 1566.54 802.974 1568.13 800.981L1569.31 799.487Z"/>
    <path fill="#6EF59B" transform="matrix(0.994629 0 0 0.995117 0 -509.5)" d="M1118.8 828.281C1120.29 835.851 1099.82 881.933 1095.13 891.71C1055.96 929.352 1023.74 971.136 1002.39 1021.42C996.484 1035.33 992.305 1049.88 986.522 1063.82C987.22 1051.57 989.56 1039.22 992.086 1027.22C1008.93 947.179 1049.06 873.883 1118.8 828.281Z"/>
    <path fill="#F3D1A8" transform="matrix(0.994629 0 0 0.995117 0 -509.5)" d="M1574.19 849.392C1599.6 829.737 1636.87 817.771 1668.33 813.05C1681.27 821.227 1694.31 829.244 1706.64 838.317C1678.44 838.342 1651.55 840.406 1624.23 848.072C1614.39 850.832 1604.03 856.866 1594.19 858.516C1583.22 864.558 1571.86 869.709 1561.09 876.135C1537 890.501 1516.51 908.942 1497.16 929.055C1515.32 897.931 1543.67 868.357 1574.19 849.392Z"/>
    <path fill="#EEAE8F" transform="matrix(0.994629 0 0 0.995117 0 -509.5)" d="M1574.19 849.392C1571.03 855.74 1557.22 864.064 1551.18 869.233C1538.38 880.195 1526.81 892.742 1515.9 905.558C1524.42 901.12 1531.91 893.877 1539.48 887.986C1552.73 877.663 1577.44 860.72 1594.19 858.516C1583.22 864.558 1571.86 869.709 1561.09 876.135C1537 890.501 1516.51 908.942 1497.16 929.055C1515.32 897.931 1543.67 868.357 1574.19 849.392Z"/>
    <path fill="#A7F6C5" transform="matrix(0.994629 0 0 0.995117 0 -509.5)" d="M626.344 862.012C628.307 865.893 630.075 869.709 631.573 873.794L638.69 888.537C648.969 889.98 659.2 891.36 669.549 892.226C661.926 899.272 654.018 906.158 646.743 913.559C648.355 923.244 649.874 932.953 651.887 942.566C643.16 937.366 634.306 932.304 625.785 926.772C617.7 932.443 609.491 937.516 600.958 942.463L606.421 919.086C606.491 918.616 606.578 918.148 606.631 917.676C607.454 910.34 589.056 898.918 584.452 892.854L585.745 891.865C594.493 890.01 603.966 889.599 612.875 888.608C617.535 879.851 621.867 870.867 626.344 862.012Z"/>
    <path fill="#B2ECA1" transform="matrix(0.994629 0 0 0.995117 0 -509.5)" d="M626.344 862.012C628.307 865.893 630.075 869.709 631.573 873.794C631.477 874.322 631.374 874.848 631.286 875.376C629.091 888.427 631.547 898.716 621.19 909.478C616.618 913.986 613.215 916.939 606.94 918.834C606.756 918.89 606.594 919.002 606.421 919.086C606.491 918.616 606.578 918.148 606.631 917.676C607.454 910.34 589.056 898.918 584.452 892.854L585.745 891.865C594.493 890.01 603.966 889.599 612.875 888.608C617.535 879.851 621.867 870.867 626.344 862.012Z"/>
    <path fill="#A2F8A8" transform="matrix(0.994629 0 0 0.995117 0 -509.5)" d="M606.421 919.086C606.491 918.616 606.578 918.148 606.631 917.676C607.454 910.34 589.056 898.918 584.452 892.854L585.745 891.865C588.753 892.018 593.3 891.642 595.605 893.658L595.425 895.062C594.861 895.075 594.296 895.08 593.732 895.102C591.582 895.188 592.406 894.985 590.788 895.679L594.711 899.476C596.553 899.166 596.873 899.036 598.321 898.04C608.384 900.593 608.983 914.672 621.19 909.478C616.618 913.986 613.215 916.939 606.94 918.834C606.756 918.89 606.594 919.002 606.421 919.086Z"/>
    <path fill="#A7F6C5" transform="matrix(0.994629 0 0 0.995117 0 -509.5)" d="M1602.88 789.037C1622.88 784.505 1643.24 788.568 1662.56 794.374C1644.84 798.097 1627.81 802.801 1610.59 808.354L1607.66 810.166C1604.38 809.868 1603.4 810.192 1601.01 807.549C1597.21 803.346 1595.9 795.577 1596.62 790.167L1602.88 789.037Z"/>
    <path fill="#8AE9B1" transform="matrix(0.994629 0 0 0.995117 0 -509.5)" d="M1602.88 789.037C1622.88 784.505 1643.24 788.568 1662.56 794.374C1644.84 798.097 1627.81 802.801 1610.59 808.354C1618.88 800.243 1640.25 796.912 1651.38 793.899C1631.54 788.875 1622.19 790.14 1602.88 789.037Z"/>
    <path fill="#F5EBB4" transform="matrix(0.994629 0 0 0.995117 0 -509.5)" d="M1449.79 882.539C1456.41 885.167 1460.21 892.687 1466.86 894.848C1473.82 899.217 1484.15 919.572 1488.64 927.239C1477 914.992 1464.96 903.512 1452.62 891.988C1450.77 888.572 1449.92 886.442 1449.79 882.539Z"/>
  </g>
</svg>
